<?xml version="1.0" encoding="utf-8" standalone="no"?>
<!DOCTYPE svg PUBLIC "-//W3C//DTD SVG 1.1//EN"
  "http://www.w3.org/Graphics/SVG/1.1/DTD/svg11.dtd">
<!-- Created with matplotlib (https://matplotlib.org/) -->
<svg height="288pt" version="1.1" viewBox="0 0 576 288" width="576pt" xmlns="http://www.w3.org/2000/svg" xmlns:xlink="http://www.w3.org/1999/xlink">
 <metadata>
  <rdf:RDF xmlns:cc="http://creativecommons.org/ns#" xmlns:dc="http://purl.org/dc/elements/1.1/" xmlns:rdf="http://www.w3.org/1999/02/22-rdf-syntax-ns#">
   <cc:Work>
    <dc:type rdf:resource="http://purl.org/dc/dcmitype/StillImage"/>
    <dc:date>2020-12-15T14:45:25.217053</dc:date>
    <dc:format>image/svg+xml</dc:format>
    <dc:creator>
     <cc:Agent>
      <dc:title>Matplotlib v3.3.2, https://matplotlib.org/</dc:title>
     </cc:Agent>
    </dc:creator>
   </cc:Work>
  </rdf:RDF>
 </metadata>
 <defs>
  <style type="text/css">*{stroke-linecap:butt;stroke-linejoin:round;}</style>
 </defs>
 <g id="figure_1">
  <g id="patch_1">
   <path d="M 0 288 
L 576 288 
L 576 0 
L 0 0 
z
" style="fill:#ffffff;"/>
  </g>
  <g id="axes_1">
   <g id="patch_2">
    <path d="M 72 256.32 
L 518.4 256.32 
L 518.4 34.56 
L 72 34.56 
z
" style="fill:#ffffff;"/>
   </g>
   <g id="matplotlib.axis_1">
    <g id="xtick_1">
     <g id="line2d_1">
      <defs>
       <path d="M 0 0 
L 0 3.5 
" id="mca53f766c0" style="stroke:#000000;stroke-width:0.8;"/>
      </defs>
      <g>
       <use style="stroke:#000000;stroke-width:0.8;" x="92.290909" xlink:href="#mca53f766c0" y="256.32"/>
      </g>
     </g>
     <g id="text_1">
      <!-- 0.0 -->
      <g transform="translate(84.339347 270.918437)scale(0.1 -0.1)">
       <defs>
        <path d="M 31.78125 66.40625 
Q 24.171875 66.40625 20.328125 58.90625 
Q 16.5 51.421875 16.5 36.375 
Q 16.5 21.390625 20.328125 13.890625 
Q 24.171875 6.390625 31.78125 6.390625 
Q 39.453125 6.390625 43.28125 13.890625 
Q 47.125 21.390625 47.125 36.375 
Q 47.125 51.421875 43.28125 58.90625 
Q 39.453125 66.40625 31.78125 66.40625 
z
M 31.78125 74.21875 
Q 44.046875 74.21875 50.515625 64.515625 
Q 56.984375 54.828125 56.984375 36.375 
Q 56.984375 17.96875 50.515625 8.265625 
Q 44.046875 -1.421875 31.78125 -1.421875 
Q 19.53125 -1.421875 13.0625 8.265625 
Q 6.59375 17.96875 6.59375 36.375 
Q 6.59375 54.828125 13.0625 64.515625 
Q 19.53125 74.21875 31.78125 74.21875 
z
" id="DejaVuSans-48"/>
        <path d="M 10.6875 12.40625 
L 21 12.40625 
L 21 0 
L 10.6875 0 
z
" id="DejaVuSans-46"/>
       </defs>
       <use xlink:href="#DejaVuSans-48"/>
       <use x="63.623047" xlink:href="#DejaVuSans-46"/>
       <use x="95.410156" xlink:href="#DejaVuSans-48"/>
      </g>
     </g>
    </g>
    <g id="xtick_2">
     <g id="line2d_2">
      <g>
       <use style="stroke:#000000;stroke-width:0.8;" x="143.018182" xlink:href="#mca53f766c0" y="256.32"/>
      </g>
     </g>
     <g id="text_2">
      <!-- 2.5 -->
      <g transform="translate(135.066619 270.918437)scale(0.1 -0.1)">
       <defs>
        <path d="M 19.1875 8.296875 
L 53.609375 8.296875 
L 53.609375 0 
L 7.328125 0 
L 7.328125 8.296875 
Q 12.9375 14.109375 22.625 23.890625 
Q 32.328125 33.6875 34.8125 36.53125 
Q 39.546875 41.84375 41.421875 45.53125 
Q 43.3125 49.21875 43.3125 52.78125 
Q 43.3125 58.59375 39.234375 62.25 
Q 35.15625 65.921875 28.609375 65.921875 
Q 23.96875 65.921875 18.8125 64.3125 
Q 13.671875 62.703125 7.8125 59.421875 
L 7.8125 69.390625 
Q 13.765625 71.78125 18.9375 73 
Q 24.125 74.21875 28.421875 74.21875 
Q 39.75 74.21875 46.484375 68.546875 
Q 53.21875 62.890625 53.21875 53.421875 
Q 53.21875 48.921875 51.53125 44.890625 
Q 49.859375 40.875 45.40625 35.40625 
Q 44.1875 33.984375 37.640625 27.21875 
Q 31.109375 20.453125 19.1875 8.296875 
z
" id="DejaVuSans-50"/>
        <path d="M 10.796875 72.90625 
L 49.515625 72.90625 
L 49.515625 64.59375 
L 19.828125 64.59375 
L 19.828125 46.734375 
Q 21.96875 47.46875 24.109375 47.828125 
Q 26.265625 48.1875 28.421875 48.1875 
Q 40.625 48.1875 47.75 41.5 
Q 54.890625 34.8125 54.890625 23.390625 
Q 54.890625 11.625 47.5625 5.09375 
Q 40.234375 -1.421875 26.90625 -1.421875 
Q 22.3125 -1.421875 17.546875 -0.640625 
Q 12.796875 0.140625 7.71875 1.703125 
L 7.71875 11.625 
Q 12.109375 9.234375 16.796875 8.0625 
Q 21.484375 6.890625 26.703125 6.890625 
Q 35.15625 6.890625 40.078125 11.328125 
Q 45.015625 15.765625 45.015625 23.390625 
Q 45.015625 31 40.078125 35.4375 
Q 35.15625 39.890625 26.703125 39.890625 
Q 22.75 39.890625 18.8125 39.015625 
Q 14.890625 38.140625 10.796875 36.28125 
z
" id="DejaVuSans-53"/>
       </defs>
       <use xlink:href="#DejaVuSans-50"/>
       <use x="63.623047" xlink:href="#DejaVuSans-46"/>
       <use x="95.410156" xlink:href="#DejaVuSans-53"/>
      </g>
     </g>
    </g>
    <g id="xtick_3">
     <g id="line2d_3">
      <g>
       <use style="stroke:#000000;stroke-width:0.8;" x="193.745455" xlink:href="#mca53f766c0" y="256.32"/>
      </g>
     </g>
     <g id="text_3">
      <!-- 5.0 -->
      <g transform="translate(185.793892 270.918437)scale(0.1 -0.1)">
       <use xlink:href="#DejaVuSans-53"/>
       <use x="63.623047" xlink:href="#DejaVuSans-46"/>
       <use x="95.410156" xlink:href="#DejaVuSans-48"/>
      </g>
     </g>
    </g>
    <g id="xtick_4">
     <g id="line2d_4">
      <g>
       <use style="stroke:#000000;stroke-width:0.8;" x="244.472727" xlink:href="#mca53f766c0" y="256.32"/>
      </g>
     </g>
     <g id="text_4">
      <!-- 7.5 -->
      <g transform="translate(236.521165 270.918437)scale(0.1 -0.1)">
       <defs>
        <path d="M 8.203125 72.90625 
L 55.078125 72.90625 
L 55.078125 68.703125 
L 28.609375 0 
L 18.3125 0 
L 43.21875 64.59375 
L 8.203125 64.59375 
z
" id="DejaVuSans-55"/>
       </defs>
       <use xlink:href="#DejaVuSans-55"/>
       <use x="63.623047" xlink:href="#DejaVuSans-46"/>
       <use x="95.410156" xlink:href="#DejaVuSans-53"/>
      </g>
     </g>
    </g>
    <g id="xtick_5">
     <g id="line2d_5">
      <g>
       <use style="stroke:#000000;stroke-width:0.8;" x="295.2" xlink:href="#mca53f766c0" y="256.32"/>
      </g>
     </g>
     <g id="text_5">
      <!-- 10.0 -->
      <g transform="translate(284.067187 270.918437)scale(0.1 -0.1)">
       <defs>
        <path d="M 12.40625 8.296875 
L 28.515625 8.296875 
L 28.515625 63.921875 
L 10.984375 60.40625 
L 10.984375 69.390625 
L 28.421875 72.90625 
L 38.28125 72.90625 
L 38.28125 8.296875 
L 54.390625 8.296875 
L 54.390625 0 
L 12.40625 0 
z
" id="DejaVuSans-49"/>
       </defs>
       <use xlink:href="#DejaVuSans-49"/>
       <use x="63.623047" xlink:href="#DejaVuSans-48"/>
       <use x="127.246094" xlink:href="#DejaVuSans-46"/>
       <use x="159.033203" xlink:href="#DejaVuSans-48"/>
      </g>
     </g>
    </g>
    <g id="xtick_6">
     <g id="line2d_6">
      <g>
       <use style="stroke:#000000;stroke-width:0.8;" x="345.927273" xlink:href="#mca53f766c0" y="256.32"/>
      </g>
     </g>
     <g id="text_6">
      <!-- 12.5 -->
      <g transform="translate(334.79446 270.918437)scale(0.1 -0.1)">
       <use xlink:href="#DejaVuSans-49"/>
       <use x="63.623047" xlink:href="#DejaVuSans-50"/>
       <use x="127.246094" xlink:href="#DejaVuSans-46"/>
       <use x="159.033203" xlink:href="#DejaVuSans-53"/>
      </g>
     </g>
    </g>
    <g id="xtick_7">
     <g id="line2d_7">
      <g>
       <use style="stroke:#000000;stroke-width:0.8;" x="396.654545" xlink:href="#mca53f766c0" y="256.32"/>
      </g>
     </g>
     <g id="text_7">
      <!-- 15.0 -->
      <g transform="translate(385.521733 270.918437)scale(0.1 -0.1)">
       <use xlink:href="#DejaVuSans-49"/>
       <use x="63.623047" xlink:href="#DejaVuSans-53"/>
       <use x="127.246094" xlink:href="#DejaVuSans-46"/>
       <use x="159.033203" xlink:href="#DejaVuSans-48"/>
      </g>
     </g>
    </g>
    <g id="xtick_8">
     <g id="line2d_8">
      <g>
       <use style="stroke:#000000;stroke-width:0.8;" x="447.381818" xlink:href="#mca53f766c0" y="256.32"/>
      </g>
     </g>
     <g id="text_8">
      <!-- 17.5 -->
      <g transform="translate(436.249006 270.918437)scale(0.1 -0.1)">
       <use xlink:href="#DejaVuSans-49"/>
       <use x="63.623047" xlink:href="#DejaVuSans-55"/>
       <use x="127.246094" xlink:href="#DejaVuSans-46"/>
       <use x="159.033203" xlink:href="#DejaVuSans-53"/>
      </g>
     </g>
    </g>
    <g id="xtick_9">
     <g id="line2d_9">
      <g>
       <use style="stroke:#000000;stroke-width:0.8;" x="498.109091" xlink:href="#mca53f766c0" y="256.32"/>
      </g>
     </g>
     <g id="text_9">
      <!-- 20.0 -->
      <g transform="translate(486.976278 270.918437)scale(0.1 -0.1)">
       <use xlink:href="#DejaVuSans-50"/>
       <use x="63.623047" xlink:href="#DejaVuSans-48"/>
       <use x="127.246094" xlink:href="#DejaVuSans-46"/>
       <use x="159.033203" xlink:href="#DejaVuSans-48"/>
      </g>
     </g>
    </g>
   </g>
   <g id="matplotlib.axis_2">
    <g id="ytick_1">
     <g id="line2d_10">
      <defs>
       <path d="M 0 0 
L -3.5 0 
" id="me670dc2c52" style="stroke:#000000;stroke-width:0.8;"/>
      </defs>
      <g>
       <use style="stroke:#000000;stroke-width:0.8;" x="72" xlink:href="#me670dc2c52" y="226.152568"/>
      </g>
     </g>
     <g id="text_10">
      <!-- −2 -->
      <g transform="translate(50.257812 229.951787)scale(0.1 -0.1)">
       <defs>
        <path d="M 10.59375 35.5 
L 73.1875 35.5 
L 73.1875 27.203125 
L 10.59375 27.203125 
z
" id="DejaVuSans-8722"/>
       </defs>
       <use xlink:href="#DejaVuSans-8722"/>
       <use x="83.789062" xlink:href="#DejaVuSans-50"/>
      </g>
     </g>
    </g>
    <g id="ytick_2">
     <g id="line2d_11">
      <g>
       <use style="stroke:#000000;stroke-width:0.8;" x="72" xlink:href="#me670dc2c52" y="180.756284"/>
      </g>
     </g>
     <g id="text_11">
      <!-- −1 -->
      <g transform="translate(50.257812 184.555503)scale(0.1 -0.1)">
       <use xlink:href="#DejaVuSans-8722"/>
       <use x="83.789062" xlink:href="#DejaVuSans-49"/>
      </g>
     </g>
    </g>
    <g id="ytick_3">
     <g id="line2d_12">
      <g>
       <use style="stroke:#000000;stroke-width:0.8;" x="72" xlink:href="#me670dc2c52" y="135.36"/>
      </g>
     </g>
     <g id="text_12">
      <!-- 0 -->
      <g transform="translate(58.6375 139.159219)scale(0.1 -0.1)">
       <use xlink:href="#DejaVuSans-48"/>
      </g>
     </g>
    </g>
    <g id="ytick_4">
     <g id="line2d_13">
      <g>
       <use style="stroke:#000000;stroke-width:0.8;" x="72" xlink:href="#me670dc2c52" y="89.963716"/>
      </g>
     </g>
     <g id="text_13">
      <!-- 1 -->
      <g transform="translate(58.6375 93.762935)scale(0.1 -0.1)">
       <use xlink:href="#DejaVuSans-49"/>
      </g>
     </g>
    </g>
    <g id="ytick_5">
     <g id="line2d_14">
      <g>
       <use style="stroke:#000000;stroke-width:0.8;" x="72" xlink:href="#me670dc2c52" y="44.567432"/>
      </g>
     </g>
     <g id="text_14">
      <!-- 2 -->
      <g transform="translate(58.6375 48.36665)scale(0.1 -0.1)">
       <use xlink:href="#DejaVuSans-50"/>
      </g>
     </g>
    </g>
    <g id="text_15">
     <!-- 1e−15 -->
     <g transform="translate(72 31.56)scale(0.1 -0.1)">
      <defs>
       <path d="M 56.203125 29.59375 
L 56.203125 25.203125 
L 14.890625 25.203125 
Q 15.484375 15.921875 20.484375 11.0625 
Q 25.484375 6.203125 34.421875 6.203125 
Q 39.59375 6.203125 44.453125 7.46875 
Q 49.3125 8.734375 54.109375 11.28125 
L 54.109375 2.78125 
Q 49.265625 0.734375 44.1875 -0.34375 
Q 39.109375 -1.421875 33.890625 -1.421875 
Q 20.796875 -1.421875 13.15625 6.1875 
Q 5.515625 13.8125 5.515625 26.8125 
Q 5.515625 40.234375 12.765625 48.109375 
Q 20.015625 56 32.328125 56 
Q 43.359375 56 49.78125 48.890625 
Q 56.203125 41.796875 56.203125 29.59375 
z
M 47.21875 32.234375 
Q 47.125 39.59375 43.09375 43.984375 
Q 39.0625 48.390625 32.421875 48.390625 
Q 24.90625 48.390625 20.390625 44.140625 
Q 15.875 39.890625 15.1875 32.171875 
z
" id="DejaVuSans-101"/>
      </defs>
      <use xlink:href="#DejaVuSans-49"/>
      <use x="63.623047" xlink:href="#DejaVuSans-101"/>
      <use x="125.146484" xlink:href="#DejaVuSans-8722"/>
      <use x="208.935547" xlink:href="#DejaVuSans-49"/>
      <use x="272.558594" xlink:href="#DejaVuSans-53"/>
     </g>
    </g>
   </g>
   <g id="line2d_15">
    <path clip-path="url(#p7f90677fca)" d="M 92.290909 135.36 
L 94.32 165.6 
L 96.349091 165.6 
L 98.378182 180.72 
L 100.407273 115.2 
L 102.436364 115.2 
L 104.465455 165.6 
L 106.494545 170.64 
L 108.523636 155.52 
L 110.552727 155.52 
L 112.581818 180.72 
L 114.610909 150.48 
L 116.64 165.6 
L 118.669091 175.68 
L 120.698182 125.28 
L 122.727273 150.48 
L 124.756364 145.44 
L 126.785455 170.64 
L 128.814545 145.44 
L 130.843636 185.76 
L 132.872727 100.08 
L 134.901818 74.88 
L 136.930909 170.64 
L 138.96 115.2 
L 140.989091 150.48 
L 145.047273 130.32 
L 147.076364 95.04 
L 149.105455 165.6 
L 151.134545 195.84 
L 153.163636 175.68 
L 155.192727 64.8 
L 157.221818 160.56 
L 159.250909 185.76 
L 161.28 120.24 
L 163.309091 130.32 
L 165.338182 190.8 
L 167.367273 74.88 
L 169.396364 155.52 
L 171.425455 135.36 
L 173.454545 110.16 
L 175.483636 135.36 
L 177.512727 125.28 
L 179.541818 150.48 
L 181.570909 145.44 
L 183.6 170.64 
L 185.629091 170.64 
L 187.658182 120.24 
L 189.687273 130.32 
L 191.716364 150.48 
L 193.745455 160.56 
L 195.774545 125.28 
L 197.803636 160.56 
L 201.861818 140.4 
L 203.890909 150.48 
L 207.949091 120.24 
L 209.978182 175.68 
L 212.007273 135.36 
L 214.036364 125.28 
L 216.065455 145.44 
L 218.094545 150.48 
L 220.123636 185.76 
L 222.152727 110.16 
L 224.181818 74.88 
L 226.210909 105.12 
L 228.24 170.64 
L 230.269091 125.28 
L 232.298182 120.24 
L 234.327273 170.64 
L 236.356364 74.88 
L 238.385455 150.48 
L 240.414545 200.88 
L 242.443636 155.52 
L 244.472727 145.44 
L 246.501818 200.88 
L 248.530909 160.56 
L 250.56 84.96 
L 252.589091 216 
L 254.618182 160.56 
L 258.676364 180.72 
L 260.705455 105.12 
L 262.734545 145.44 
L 264.763636 200.88 
L 266.792727 64.8 
L 268.821818 130.32 
L 270.850909 115.2 
L 272.88 165.6 
L 274.909091 140.4 
L 276.938182 100.08 
L 278.967273 155.52 
L 280.996364 180.72 
L 283.025455 180.72 
L 285.054545 195.84 
L 287.083636 105.12 
L 289.112727 105.12 
L 291.141818 140.4 
L 293.170909 95.04 
L 295.2 105.12 
L 297.229091 170.64 
L 299.258182 140.4 
L 301.287273 135.36 
L 303.316364 155.52 
L 307.374545 165.6 
L 311.432727 135.36 
L 313.461818 165.6 
L 315.490909 125.28 
L 317.52 160.56 
L 321.578182 160.56 
L 323.607273 155.52 
L 325.636364 140.4 
L 327.665455 165.6 
L 329.694545 135.36 
L 331.723636 155.52 
L 333.752727 170.64 
L 335.781818 150.48 
L 337.810909 145.44 
L 339.84 120.24 
L 341.869091 175.68 
L 343.898182 145.44 
L 345.927273 165.6 
L 347.956364 130.32 
L 349.985455 170.64 
L 352.014545 130.32 
L 354.043636 140.4 
L 356.072727 135.36 
L 358.101818 165.6 
L 360.130909 160.56 
L 362.16 54.72 
L 364.189091 110.16 
L 366.218182 100.08 
L 368.247273 195.84 
L 370.276364 160.56 
L 372.305455 120.24 
L 374.334545 135.36 
L 376.363636 216 
L 378.392727 54.72 
L 380.421818 120.24 
L 382.450909 190.8 
L 384.48 44.64 
L 386.509091 74.88 
L 388.538182 120.24 
L 390.567273 160.56 
L 392.596364 190.8 
L 394.625455 135.36 
L 396.654545 130.32 
L 398.683636 246.24 
L 400.712727 135.36 
L 402.741818 95.04 
L 404.770909 160.56 
L 406.8 165.6 
L 408.829091 190.8 
L 410.858182 100.08 
L 412.887273 195.84 
L 414.916364 100.08 
L 416.945455 195.84 
L 418.974545 160.56 
L 421.003636 160.56 
L 423.032727 150.48 
L 425.061818 150.48 
L 427.090909 140.4 
L 429.12 44.64 
L 431.149091 145.44 
L 433.178182 120.24 
L 435.207273 155.52 
L 437.236364 155.52 
L 439.265455 110.16 
L 441.294545 130.32 
L 443.323636 130.32 
L 445.352727 125.28 
L 447.381818 165.6 
L 449.410909 135.36 
L 451.44 160.56 
L 453.469091 115.2 
L 455.498182 180.72 
L 457.527273 165.6 
L 459.556364 155.52 
L 461.585455 160.56 
L 463.614545 160.56 
L 465.643636 140.4 
L 467.672727 135.36 
L 469.701818 135.36 
L 471.730909 205.92 
L 473.76 155.52 
L 475.789091 140.4 
L 477.818182 150.48 
L 479.847273 155.52 
L 481.876364 105.12 
L 483.905455 140.4 
L 485.934545 165.6 
L 487.963636 105.12 
L 489.992727 105.12 
L 492.021818 165.6 
L 494.050909 115.2 
L 496.08 105.12 
L 498.109091 110.16 
L 498.109091 110.16 
" style="fill:none;stroke:#1f77b4;stroke-linecap:square;stroke-width:1.5;"/>
   </g>
   <g id="patch_3">
    <path d="M 72 256.32 
L 72 34.56 
" style="fill:none;stroke:#000000;stroke-linecap:square;stroke-linejoin:miter;stroke-width:0.8;"/>
   </g>
   <g id="patch_4">
    <path d="M 518.4 256.32 
L 518.4 34.56 
" style="fill:none;stroke:#000000;stroke-linecap:square;stroke-linejoin:miter;stroke-width:0.8;"/>
   </g>
   <g id="patch_5">
    <path d="M 72 256.32 
L 518.4 256.32 
" style="fill:none;stroke:#000000;stroke-linecap:square;stroke-linejoin:miter;stroke-width:0.8;"/>
   </g>
   <g id="patch_6">
    <path d="M 72 34.56 
L 518.4 34.56 
" style="fill:none;stroke:#000000;stroke-linecap:square;stroke-linejoin:miter;stroke-width:0.8;"/>
   </g>
  </g>
 </g>
 <defs>
  <clipPath id="p7f90677fca">
   <rect height="221.76" width="446.4" x="72" y="34.56"/>
  </clipPath>
 </defs>
</svg>
